<svg id="Layer_1" data-name="Layer 1" xmlns="http://www.w3.org/2000/svg" xmlns:xlink="http://www.w3.org/1999/xlink" viewBox="0 0 213.59 194.55"><defs><style>.cls-1{fill:#1783ff;}.cls-2{fill:#fff;}.cls-3{fill:url(#linear-gradient);}.cls-4{fill:url(#linear-gradient-2);}.cls-5{fill:none;}</style><linearGradient id="linear-gradient" x1="49.12" y1="21.89" x2="50.48" y2="90.24" gradientUnits="userSpaceOnUse"><stop offset="0" stop-color="#fff"/><stop offset="0.25" stop-color="#fdfdfd"/><stop offset="0.34" stop-color="#f6f6f6"/><stop offset="0.41" stop-color="#ebebeb"/><stop offset="0.46" stop-color="#dadada"/><stop offset="0.51" stop-color="#c4c4c4"/><stop offset="0.55" stop-color="#a9a9a9"/><stop offset="0.58" stop-color="#8e8e8e"/><stop offset="0.63" stop-color="#747474" stop-opacity="0.78"/><stop offset="0.71" stop-color="#535353" stop-opacity="0.5"/><stop offset="0.79" stop-color="#393939" stop-opacity="0.28"/><stop offset="0.86" stop-color="#272727" stop-opacity="0.13"/><stop offset="0.94" stop-color="#1c1c1c" stop-opacity="0.03"/><stop offset="1" stop-color="#181818" stop-opacity="0"/></linearGradient><linearGradient id="linear-gradient-2" x1="78.19" y1="147" x2="119.41" y2="147" gradientUnits="userSpaceOnUse"><stop offset="0" stop-color="#181818" stop-opacity="0"/><stop offset="0.07" stop-color="#1c1c1c" stop-opacity="0.03"/><stop offset="0.15" stop-color="#272727" stop-opacity="0.13"/><stop offset="0.23" stop-color="#393939" stop-opacity="0.28"/><stop offset="0.31" stop-color="#535353" stop-opacity="0.5"/><stop offset="0.4" stop-color="#747474" stop-opacity="0.78"/><stop offset="0.46" stop-color="#8e8e8e"/><stop offset="0.49" stop-color="#a9a9a9"/><stop offset="0.52" stop-color="#c4c4c4"/><stop offset="0.57" stop-color="#dadada"/><stop offset="0.62" stop-color="#ebebeb"/><stop offset="0.68" stop-color="#f6f6f6"/><stop offset="0.76" stop-color="#fdfdfd"/><stop offset="1" stop-color="#fff"/></linearGradient></defs><circle class="cls-1" cx="190.89" cy="169.82" r="10.34"/><polygon class="cls-2" points="133.47 33.12 70.35 113.05 70.35 178.93 30.04 179.16 30.04 17.69 38.34 17.69 38.34 170.87 61.83 170.87 61.83 110.06 122.87 33.12 133.47 33.12"/><polygon class="cls-2" points="83.02 108.9 147.98 26.21 118.03 26.21 54 108.21 54 164.88 45.71 164.88 45.71 105.45 114.12 17.69 165.03 17.69 93.62 108.9 134.85 164.88 124.48 164.88 83.02 108.9"/><polygon class="cls-3" points="54 26.35 54 81.03 45.71 91.63 45.71 17.69 45.84 17.69 54 26.35"/><polygon class="cls-2" points="70.13 17.69 70.13 60.53 61.6 71.13 61.6 26.21 54 26.21 54 26.35 45.84 17.69 70.13 17.69"/><polygon class="cls-4" points="119.41 170.85 115.22 178.87 78.19 128.94 78.19 115.12 119.41 170.85"/><polygon class="cls-2" points="165.26 178.93 115.27 178.93 115.22 178.87 119.41 170.85 119.42 170.87 148.67 170.87 103.53 109.83 108.82 103.15 165.26 178.93"/><line class="cls-5" x1="45.84" y1="17.69" x2="41.89" y2="13.5"/><line class="cls-5" x1="54.42" y1="26.8" x2="54" y2="26.35"/><line class="cls-5" x1="115.22" y1="178.87" x2="114.34" y2="180.56"/><line class="cls-5" x1="120.48" y1="168.79" x2="119.41" y2="170.85"/><line class="cls-5" x1="46.09" y1="119.71" x2="42.14" y2="115.52"/><line class="cls-5" x1="54.67" y1="128.82" x2="54.25" y2="128.37"/></svg>